<svg width="141" height="82" viewBox="0 0 141 82" fill="none" xmlns="http://www.w3.org/2000/svg">
<path d="M0.0866699 0H108.087C125.76 0 140.087 14.3269 140.087 32V83H0.0866699V0Z" fill="#FFB30E"/>
<path d="M22.7107 62H50.6587V53.5H42.6347V18.82H34.8827C31.8227 20.792 28.6947 21.948 24.0027 22.832V29.36H32.0947V53.5H22.7107V62ZM72.3661 62.816C81.7501 62.816 88.0061 54.928 88.0061 40.24C88.0061 25.552 81.7501 18.004 72.3661 18.004C62.9821 18.004 56.7261 25.484 56.7261 40.24C56.7261 54.928 62.9821 62.816 72.3661 62.816ZM72.3661 54.724C69.1701 54.724 66.6541 51.868 66.6541 40.24C66.6541 28.544 69.1701 26.164 72.3661 26.164C75.4941 26.164 78.0781 28.544 78.0781 40.24C78.0781 51.868 75.4941 54.724 72.3661 54.724Z" fill="white"/>
<path d="M97.7017 35.285C101.027 35.285 103.442 32.555 103.442 28.005C103.442 23.455 101.027 20.795 97.7017 20.795C94.3767 20.795 91.9267 23.455 91.9267 28.005C91.9267 32.555 94.3767 35.285 97.7017 35.285ZM97.7017 32.275C96.6167 32.275 95.7067 31.19 95.7067 28.005C95.7067 24.82 96.6167 23.805 97.7017 23.805C98.7867 23.805 99.6967 24.82 99.6967 28.005C99.6967 31.19 98.7867 32.275 97.7017 32.275ZM98.5067 44.42H101.587L113.872 20.795H110.792L98.5067 44.42ZM114.642 44.42C117.967 44.42 120.382 41.69 120.382 37.14C120.382 32.59 117.967 29.93 114.642 29.93C111.317 29.93 108.867 32.59 108.867 37.14C108.867 41.69 111.317 44.42 114.642 44.42ZM114.642 41.41C113.557 41.41 112.647 40.325 112.647 37.14C112.647 33.955 113.557 32.94 114.642 32.94C115.727 32.94 116.637 33.955 116.637 37.14C116.637 40.325 115.727 41.41 114.642 41.41Z" fill="white"/>
<path d="M98.3907 64.264C102.021 64.264 104.573 61.36 104.573 56.718C104.573 52.12 102.021 49.304 98.3907 49.304C94.7607 49.304 92.2307 52.098 92.2307 56.718C92.2307 61.36 94.7607 64.264 98.3907 64.264ZM98.3907 62.636C95.8167 62.636 94.1447 60.326 94.1447 56.718C94.1447 53.132 95.8167 50.932 98.3907 50.932C100.965 50.932 102.659 53.132 102.659 56.718C102.659 60.326 100.965 62.636 98.3907 62.636ZM114.078 64H115.904V54.782H118.17V53.308H115.904V51.636C115.904 50.25 116.41 49.546 117.4 49.546C117.796 49.546 118.214 49.634 118.61 49.832L119.006 48.424C118.522 48.226 117.884 48.072 117.224 48.072C115.068 48.072 114.078 49.458 114.078 51.636V53.308H109.634V51.944C109.634 50.536 110.228 49.766 111.284 49.766C111.834 49.766 112.252 49.854 112.714 50.074L113.11 48.688C112.56 48.446 111.856 48.292 111.13 48.292C108.908 48.292 107.808 49.678 107.808 51.9V53.308L106.356 53.418V54.782H107.808V64H109.634V54.782H114.078V64Z" fill="white"/>
</svg>
