<svg width="141" height="82" viewBox="0 0 141 82" fill="none" xmlns="http://www.w3.org/2000/svg">
<path d="M0.91333 0H108.913C126.586 0 140.913 14.3269 140.913 32V83H0.91333V0Z" fill="#FFB30E"/>
<path d="M21.4293 62H52.0973V53.16H42.8493C40.8773 53.16 37.8853 53.432 35.6413 53.636C42.9173 46.564 49.9893 39.56 49.9893 31.808C49.9893 23.512 44.0733 18.004 35.5053 18.004C29.3853 18.004 25.3733 20.384 21.1573 25.144L26.5973 30.584C28.7053 28.34 31.0853 26.3 34.0773 26.3C37.6813 26.3 39.9253 28.408 39.9253 32.488C39.9253 38.472 32.0373 46.156 21.4293 55.54V62ZM73.1927 62.816C82.5767 62.816 88.8327 54.928 88.8327 40.24C88.8327 25.552 82.5767 18.004 73.1927 18.004C63.8087 18.004 57.5527 25.484 57.5527 40.24C57.5527 54.928 63.8087 62.816 73.1927 62.816ZM73.1927 54.724C69.9967 54.724 67.4807 51.868 67.4807 40.24C67.4807 28.544 69.9967 26.164 73.1927 26.164C76.3207 26.164 78.9047 28.544 78.9047 40.24C78.9047 51.868 76.3207 54.724 73.1927 54.724Z" fill="white"/>
<path d="M98.5283 35.285C101.853 35.285 104.268 32.555 104.268 28.005C104.268 23.455 101.853 20.795 98.5283 20.795C95.2033 20.795 92.7533 23.455 92.7533 28.005C92.7533 32.555 95.2033 35.285 98.5283 35.285ZM98.5283 32.275C97.4433 32.275 96.5333 31.19 96.5333 28.005C96.5333 24.82 97.4433 23.805 98.5283 23.805C99.6133 23.805 100.523 24.82 100.523 28.005C100.523 31.19 99.6133 32.275 98.5283 32.275ZM99.3333 44.42H102.413L114.698 20.795H111.618L99.3333 44.42ZM115.468 44.42C118.793 44.42 121.208 41.69 121.208 37.14C121.208 32.59 118.793 29.93 115.468 29.93C112.143 29.93 109.693 32.59 109.693 37.14C109.693 41.69 112.143 44.42 115.468 44.42ZM115.468 41.41C114.383 41.41 113.473 40.325 113.473 37.14C113.473 33.955 114.383 32.94 115.468 32.94C116.553 32.94 117.463 33.955 117.463 37.14C117.463 40.325 116.553 41.41 115.468 41.41Z" fill="white"/>
<path d="M99.2173 64.264C102.847 64.264 105.399 61.36 105.399 56.718C105.399 52.12 102.847 49.304 99.2173 49.304C95.5873 49.304 93.0573 52.098 93.0573 56.718C93.0573 61.36 95.5873 64.264 99.2173 64.264ZM99.2173 62.636C96.6433 62.636 94.9713 60.326 94.9713 56.718C94.9713 53.132 96.6433 50.932 99.2173 50.932C101.791 50.932 103.485 53.132 103.485 56.718C103.485 60.326 101.791 62.636 99.2173 62.636ZM114.905 64H116.731V54.782H118.997V53.308H116.731V51.636C116.731 50.25 117.237 49.546 118.227 49.546C118.623 49.546 119.041 49.634 119.437 49.832L119.833 48.424C119.349 48.226 118.711 48.072 118.051 48.072C115.895 48.072 114.905 49.458 114.905 51.636V53.308H110.461V51.944C110.461 50.536 111.055 49.766 112.111 49.766C112.661 49.766 113.079 49.854 113.541 50.074L113.937 48.688C113.387 48.446 112.683 48.292 111.957 48.292C109.735 48.292 108.635 49.678 108.635 51.9V53.308L107.183 53.418V54.782H108.635V64H110.461V54.782H114.905V64Z" fill="white"/>
</svg>
