<svg width="140" height="82" viewBox="0 0 140 82" fill="none" xmlns="http://www.w3.org/2000/svg">
<path d="M0 0H108C125.673 0 140 14.3269 140 32V83H0V0Z" fill="#FFB30E"/>
<path d="M20.516 62H51.184V53.16H41.936C39.964 53.16 36.972 53.432 34.728 53.636C42.004 46.564 49.076 39.56 49.076 31.808C49.076 23.512 43.16 18.004 34.592 18.004C28.472 18.004 24.46 20.384 20.244 25.144L25.684 30.584C27.792 28.34 30.172 26.3 33.164 26.3C36.768 26.3 39.012 28.408 39.012 32.488C39.012 38.472 31.124 46.156 20.516 55.54V62ZM71.1234 62.816C79.6234 62.816 87.1034 57.308 87.1034 47.652C87.1034 38.54 80.7794 34.324 73.2994 34.324C71.6674 34.324 70.3074 34.528 68.7434 35.208L69.3554 27.66H85.1314V18.82H60.3114L59.1554 40.784L63.7794 43.776C66.3634 42.144 67.5874 41.6 70.0354 41.6C73.8434 41.6 76.5634 43.844 76.5634 47.924C76.5634 52.14 73.8434 54.316 69.5594 54.316C66.0234 54.316 63.0314 52.48 60.4474 50.1L55.6874 56.696C59.1554 60.164 64.0514 62.816 71.1234 62.816Z" fill="white"/>
<path d="M97.615 35.285C100.94 35.285 103.355 32.555 103.355 28.005C103.355 23.455 100.94 20.795 97.615 20.795C94.29 20.795 91.84 23.455 91.84 28.005C91.84 32.555 94.29 35.285 97.615 35.285ZM97.615 32.275C96.53 32.275 95.62 31.19 95.62 28.005C95.62 24.82 96.53 23.805 97.615 23.805C98.7 23.805 99.61 24.82 99.61 28.005C99.61 31.19 98.7 32.275 97.615 32.275ZM98.42 44.42H101.5L113.785 20.795H110.705L98.42 44.42ZM114.555 44.42C117.88 44.42 120.295 41.69 120.295 37.14C120.295 32.59 117.88 29.93 114.555 29.93C111.23 29.93 108.78 32.59 108.78 37.14C108.78 41.69 111.23 44.42 114.555 44.42ZM114.555 41.41C113.47 41.41 112.56 40.325 112.56 37.14C112.56 33.955 113.47 32.94 114.555 32.94C115.64 32.94 116.55 33.955 116.55 37.14C116.55 40.325 115.64 41.41 114.555 41.41Z" fill="white"/>
<path d="M98.304 64.264C101.934 64.264 104.486 61.36 104.486 56.718C104.486 52.12 101.934 49.304 98.304 49.304C94.674 49.304 92.144 52.098 92.144 56.718C92.144 61.36 94.674 64.264 98.304 64.264ZM98.304 62.636C95.73 62.636 94.058 60.326 94.058 56.718C94.058 53.132 95.73 50.932 98.304 50.932C100.878 50.932 102.572 53.132 102.572 56.718C102.572 60.326 100.878 62.636 98.304 62.636ZM113.991 64H115.817V54.782H118.083V53.308H115.817V51.636C115.817 50.25 116.323 49.546 117.313 49.546C117.709 49.546 118.127 49.634 118.523 49.832L118.919 48.424C118.435 48.226 117.797 48.072 117.137 48.072C114.981 48.072 113.991 49.458 113.991 51.636V53.308H109.547V51.944C109.547 50.536 110.141 49.766 111.197 49.766C111.747 49.766 112.165 49.854 112.627 50.074L113.023 48.688C112.473 48.446 111.769 48.292 111.043 48.292C108.821 48.292 107.721 49.678 107.721 51.9V53.308L106.269 53.418V54.782H107.721V64H109.547V54.782H113.991V64Z" fill="white"/>
</svg>
