<svg width="141" height="82" viewBox="0 0 141 82" fill="none" xmlns="http://www.w3.org/2000/svg">
<path d="M0.17334 0H108.173C125.846 0 140.173 14.3269 140.173 32V83H0.17334V0Z" fill="#FFB30E"/>
<path d="M22.7973 62H50.7453V53.5H42.7213V18.82H34.9693C31.9093 20.792 28.7813 21.948 24.0893 22.832V29.36H32.1813V53.5H22.7973V62ZM71.2967 62.816C79.7967 62.816 87.2767 57.308 87.2767 47.652C87.2767 38.54 80.9527 34.324 73.4727 34.324C71.8407 34.324 70.4807 34.528 68.9167 35.208L69.5287 27.66H85.3047V18.82H60.4847L59.3287 40.784L63.9527 43.776C66.5367 42.144 67.7607 41.6 70.2087 41.6C74.0167 41.6 76.7367 43.844 76.7367 47.924C76.7367 52.14 74.0167 54.316 69.7327 54.316C66.1967 54.316 63.2047 52.48 60.6207 50.1L55.8607 56.696C59.3287 60.164 64.2247 62.816 71.2967 62.816Z" fill="white"/>
<path d="M97.7883 35.285C101.113 35.285 103.528 32.555 103.528 28.005C103.528 23.455 101.113 20.795 97.7883 20.795C94.4633 20.795 92.0133 23.455 92.0133 28.005C92.0133 32.555 94.4633 35.285 97.7883 35.285ZM97.7883 32.275C96.7033 32.275 95.7933 31.19 95.7933 28.005C95.7933 24.82 96.7033 23.805 97.7883 23.805C98.8733 23.805 99.7833 24.82 99.7833 28.005C99.7833 31.19 98.8733 32.275 97.7883 32.275ZM98.5933 44.42H101.673L113.958 20.795H110.878L98.5933 44.42ZM114.728 44.42C118.053 44.42 120.468 41.69 120.468 37.14C120.468 32.59 118.053 29.93 114.728 29.93C111.403 29.93 108.953 32.59 108.953 37.14C108.953 41.69 111.403 44.42 114.728 44.42ZM114.728 41.41C113.643 41.41 112.733 40.325 112.733 37.14C112.733 33.955 113.643 32.94 114.728 32.94C115.813 32.94 116.723 33.955 116.723 37.14C116.723 40.325 115.813 41.41 114.728 41.41Z" fill="white"/>
<path d="M98.4773 64.264C102.107 64.264 104.659 61.36 104.659 56.718C104.659 52.12 102.107 49.304 98.4773 49.304C94.8473 49.304 92.3173 52.098 92.3173 56.718C92.3173 61.36 94.8473 64.264 98.4773 64.264ZM98.4773 62.636C95.9033 62.636 94.2313 60.326 94.2313 56.718C94.2313 53.132 95.9033 50.932 98.4773 50.932C101.051 50.932 102.745 53.132 102.745 56.718C102.745 60.326 101.051 62.636 98.4773 62.636ZM114.165 64H115.991V54.782H118.257V53.308H115.991V51.636C115.991 50.25 116.497 49.546 117.487 49.546C117.883 49.546 118.301 49.634 118.697 49.832L119.093 48.424C118.609 48.226 117.971 48.072 117.311 48.072C115.155 48.072 114.165 49.458 114.165 51.636V53.308H109.721V51.944C109.721 50.536 110.315 49.766 111.371 49.766C111.921 49.766 112.339 49.854 112.801 50.074L113.197 48.688C112.647 48.446 111.943 48.292 111.217 48.292C108.995 48.292 107.895 49.678 107.895 51.9V53.308L106.443 53.418V54.782H107.895V64H109.721V54.782H114.165V64Z" fill="white"/>
</svg>
